<svg width="778" height="535" viewBox="0 0 778 535" fill="none" xmlns="http://www.w3.org/2000/svg">
<g clip-path="url(#clip0)">
<path d="M261.273 129.133C261.273 129.133 278.82 135.852 277.735 142.936C277.359 145.385 273.061 144.627 270.873 145.789C269.267 146.642 267.506 147.414 266.316 148.791C264.612 150.764 263.152 153.278 263.007 155.882C262.886 158.058 262.689 161.061 263.105 162.948C263.634 165.35 265.556 168.27 267.155 170.136C269.053 172.351 272.396 174.606 274.964 175.986C277.902 177.565 281.944 177.46 285.261 177.809C288.691 178.17 291.955 176.992 295.184 175.778C298.988 174.347 302.941 172.364 305.407 169.133C307.335 166.608 307.933 163.21 308.312 160.055C308.807 155.927 308.33 151.673 307.428 147.615C306.537 143.603 305.377 139.466 303.013 136.105C300.41 132.403 296.574 129.63 292.729 127.245C288.973 124.915 284.782 123.236 280.513 122.091C276.244 120.946 271.776 120.501 267.357 120.439C262.198 120.367 256.977 120.773 251.949 121.938C246.888 123.112 241.974 125.035 237.351 127.41C233.067 129.61 228.913 132.215 225.346 135.454C220.191 140.136 215.995 145.839 212.101 151.614C209.233 155.868 206.859 160.458 204.726 165.124C201.444 172.303 198.326 179.643 196.431 187.306C193.464 199.296 193.015 211.777 191.728 224.062C190.064 239.95 187.824 271.827 187.824 271.827L178.541 274.969L185.945 278.833C185.945 278.833 184.753 305.423 184.155 318.717C183.62 330.62 184.267 342.635 182.547 354.426C181.305 362.951 180.197 371.63 178.04 379.97C175.748 388.831 171.78 397.852 167.695 406.295C164.844 412.188 161.119 417.726 156.755 422.604C152.34 427.54 147.328 432.131 141.59 435.433C136.978 438.087 131.679 439.358 126.555 440.787C124.278 441.422 119.609 442.209 119.609 442.209C119.609 442.209 109.6 431.239 108.931 424.326C108.756 422.515 108.62 420.244 109.903 418.955C112.506 416.341 118.367 417.801 121.172 415.406C124.014 412.98 125.576 409.193 126.615 405.602C127.646 402.044 127.952 398.143 127.247 394.507C126.758 391.981 125.596 389.51 123.962 387.524C122.109 385.272 119.484 383.718 116.91 382.347C113.701 380.638 110.249 379.145 106.646 378.655C103.477 378.224 100.122 378.394 97.0753 379.373C92.7027 380.779 88.3976 383.144 85.3048 386.542C82.0938 390.07 80.0831 394.755 79.0389 399.411C77.9396 404.312 78.5229 409.504 79.2172 414.478C79.7976 418.636 80.7552 422.823 82.5225 426.629C84.1921 430.226 86.5365 433.554 89.2747 436.419C92.3161 439.603 96.0453 442.097 99.7938 444.404C104.509 447.307 109.313 450.502 114.72 451.693C119.479 452.741 124.51 452.057 129.338 451.39C139.653 449.965 150.228 446.476 159.712 442.172C166.245 439.206 173.215 434.889 177.923 431.098C181.939 427.865 185.311 424.765 188.648 420.833C193.193 415.479 197.272 409.51 200.815 403.446C202.684 400.247 204.132 396.893 205.384 393.407C207.939 386.29 209.992 378.525 211.593 371.135C213.26 363.443 213.951 355.934 215.178 348.16C216.87 337.436 217.988 326.614 218.705 315.782C219.085 310.041 219.114 298.525 219.114 298.525L227.288 296.024L218.689 291.371C218.689 291.371 219.97 256.769 221.345 239.516C222.439 225.797 224.299 212.149 225.792 198.467C226.655 190.564 226.678 182.522 228.4 174.76C229.91 167.96 232.212 161.303 235.116 154.971C237.469 149.84 240.043 144.666 243.719 140.382C246.75 136.85 250.479 133.838 254.529 131.548C256.608 130.373 261.273 129.133 261.273 129.133Z" stroke="#E8E6E2"/>
</g>
<g clip-path="url(#clip1)">
<path d="M539.263 129.133C539.263 129.133 521.717 135.852 522.802 142.936C523.177 145.385 527.476 144.627 529.664 145.789C531.27 146.642 533.031 147.414 534.22 148.791C535.925 150.764 537.384 153.278 537.529 155.882C537.651 158.058 537.848 161.061 537.432 162.948C536.903 165.35 534.981 168.27 533.382 170.136C531.484 172.351 528.141 174.606 525.572 175.986C522.634 177.565 518.593 177.46 515.276 177.809C511.846 178.17 508.582 176.992 505.352 175.778C501.549 174.347 497.596 172.364 495.129 169.133C493.202 166.608 492.604 163.21 492.225 160.055C491.73 155.927 492.207 151.673 493.108 147.615C493.999 143.603 495.16 139.466 497.523 136.105C500.127 132.403 503.963 129.63 507.808 127.245C511.564 124.915 515.755 123.236 520.024 122.091C524.292 120.946 528.76 120.501 533.18 120.439C538.339 120.367 543.56 120.773 548.587 121.938C553.649 123.112 558.562 125.035 563.185 127.41C567.47 129.61 571.624 132.215 575.191 135.454C580.346 140.136 584.542 145.839 588.435 151.614C591.303 155.868 593.678 160.458 595.811 165.124C599.093 172.303 602.21 179.643 604.106 187.306C607.073 199.296 607.521 211.777 608.808 224.062C610.473 239.95 612.712 271.827 612.712 271.827L621.996 274.969L614.592 278.833C614.592 278.833 615.784 305.423 616.382 318.717C616.917 330.62 616.27 342.635 617.989 354.426C619.232 362.951 620.34 371.63 622.497 379.97C624.789 388.831 628.757 397.852 632.842 406.295C635.693 412.188 639.418 417.725 643.782 422.604C648.196 427.54 653.209 432.131 658.946 435.433C663.558 438.087 668.857 439.358 673.982 440.787C676.258 441.422 680.928 442.209 680.928 442.209C680.928 442.209 690.937 431.239 691.605 424.326C691.78 422.515 691.917 420.244 690.633 418.954C688.031 416.341 682.17 417.801 679.365 415.406C676.523 412.98 674.961 409.193 673.921 405.602C672.891 402.044 672.585 398.143 673.289 394.507C673.779 391.981 674.94 389.51 676.574 387.524C678.428 385.272 681.053 383.718 683.626 382.347C686.836 380.638 690.287 379.145 693.89 378.655C697.06 378.224 700.415 378.394 703.461 379.373C707.834 380.779 712.139 383.143 715.232 386.542C718.443 390.07 720.454 394.755 721.498 399.411C722.597 404.312 722.014 409.504 721.319 414.478C720.739 418.636 719.781 422.823 718.014 426.629C716.344 430.225 714 433.554 711.262 436.419C708.22 439.603 704.491 442.096 700.743 444.404C696.027 447.307 691.224 450.502 685.817 451.693C681.058 452.741 676.027 452.057 671.199 451.39C660.884 449.965 650.309 446.476 640.825 442.171C634.291 439.206 627.322 434.889 622.614 431.098C618.598 427.865 615.225 424.765 611.889 420.833C607.344 415.479 603.265 409.51 599.721 403.446C597.852 400.247 596.404 396.893 595.152 393.407C592.597 386.29 590.544 378.525 588.943 371.135C587.277 363.443 586.586 355.934 585.359 348.16C583.667 337.436 582.549 326.614 581.831 315.782C581.451 310.041 581.422 298.525 581.422 298.525L573.249 296.024L581.848 291.371C581.848 291.371 580.567 256.769 579.191 239.516C578.098 225.797 576.238 212.149 574.744 198.467C573.882 190.564 573.858 182.522 572.136 174.76C570.627 167.96 568.324 161.303 565.421 154.971C563.067 149.84 560.494 144.666 556.818 140.382C553.787 136.85 550.058 133.838 546.007 131.548C543.928 130.373 539.263 129.133 539.263 129.133L539.263 129.133Z" stroke="#E8E6E2"/>
</g>
<path d="M98.8397 263.031L97.5917 269.463C97.4117 270.399 97.2437 270.483 96.7877 270.555L96.7637 270.615C97.0277 270.603 97.3997 270.591 97.8437 270.591C98.2517 270.591 98.5997 270.603 98.8517 270.615L98.8757 270.555C98.5757 270.495 98.4077 270.411 98.4077 270.039C98.4077 269.895 98.4317 269.715 98.4797 269.463L99.9797 261.711L99.9197 261.687C99.5237 262.467 98.5397 263.163 97.6757 263.667L97.7357 263.751C98.1917 263.487 98.5517 263.235 98.8397 263.031ZM104.118 270.711C106.338 270.711 107.778 267.411 107.778 264.831C107.778 263.163 107.19 261.795 105.702 261.795C103.47 261.795 102.054 265.095 102.054 267.675C102.054 269.343 102.63 270.711 104.118 270.711ZM105.642 261.951C106.446 261.951 106.806 262.959 106.806 264.291C106.806 267.063 105.57 270.555 104.178 270.555C103.362 270.555 103.014 269.547 103.014 268.215C103.014 265.443 104.25 261.951 105.642 261.951Z" fill="#ADADAD"/>
<line x1="127.326" y1="295.692" x2="127.326" y2="473.159" stroke="#535353" stroke-opacity="0.5" stroke-dasharray="5 10"/>
<line x1="536.974" y1="-2.17121e-08" x2="536.974" y2="219.224" stroke="#535353" stroke-opacity="0.5" stroke-dasharray="5 10"/>
<line x1="76.0996" y1="312.737" x2="76.0996" y2="500.379" stroke="#535353" stroke-opacity="0.5" stroke-dasharray="5 10"/>
<line x1="0.5" y1="-0.5" x2="296.838" y2="-0.5" transform="matrix(-0.343321 0.939218 -0.938074 -0.346434 747.359 254.735)" stroke="#535353" stroke-opacity="0.5" stroke-linecap="square" stroke-linejoin="bevel" stroke-dasharray="5 10"/>
<path d="M556.704 295.466L254.853 295.466" stroke="#858585" stroke-opacity="0.8" stroke-dasharray="5 10"/>
<line x1="375.971" y1="117.15" x2="214.989" y2="117.15" stroke="#535353" stroke-opacity="0.5" stroke-dasharray="5 10"/>
<line x1="403.912" y1="181.512" x2="242.93" y2="181.512" stroke="#535353" stroke-opacity="0.5" stroke-dasharray="5 10"/>
<mask maskUnits="userSpaceOnUse" x="0" y="0" width="0" height="0" fill="black">
<rect fill="white" width="0" height="0"/>
</mask>
<path d="M124.925 281.289L119.956 278.349L119.895 284.122L124.925 281.289ZM78.191 280.79L83.1602 283.73L83.2212 277.957L78.191 280.79ZM120.43 280.741L82.696 280.338L82.6855 281.338L120.42 281.741L120.43 280.741Z" fill="#ADADAD" mask="url(#)"/>
<path d="M691.654 320.478C691.755 333.525 696.197 364.353 715.721 385.999C735.246 407.646 764.001 421.883 777 421.781" stroke="#ADADAD" stroke-opacity="0.5"/>
<line x1="133.295" y1="332.483" x2="0.000198364" y2="332.483" stroke="#858585" stroke-opacity="0.8" stroke-dasharray="5 10"/>
<path d="M490 30L490 401" stroke="#5B5B5B"/>
<path d="M310.5 62.5V503.5" stroke="#5B5B5B"/>
<defs>
<clipPath id="clip0">
<rect width="230.627" height="332.339" fill="white" transform="translate(78.1567 120.161)"/>
</clipPath>
<clipPath id="clip1">
<rect width="230.627" height="332.339" fill="white" transform="matrix(-1 0 0 1 722.38 120.161)"/>
</clipPath>
</defs>
</svg>
